<?xml version="1.0" encoding="utf-8"?>
<!-- Generator: Adobe Illustrator 18.1.0, SVG Export Plug-In . SVG Version: 6.00 Build 0)  -->
<svg version="1.1" id="Layer_1" xmlns="http://www.w3.org/2000/svg" xmlns:xlink="http://www.w3.org/1999/xlink" x="0px" y="0px"
	 viewBox="0 0 262.7 254.3" enable-background="new 0 0 262.7 254.3" xml:space="preserve">
<g>
	<path d="M1.1,0c8.4,0.5,16.5,0.8,24.2,1.1C33,1.3,40,1.4,46.3,1.4c7.2,0,14.7-0.1,22.3-0.4C76.2,0.8,84,0.5,91.9,0v12.5h-4.8
		c-9.7,0-16.3,2.6-19.7,7.7c-3.4,5.2-5.1,18.9-5.1,41.2v8.7v43.8c7.7,0.2,15.9,0.4,24.5,0.5c8.6,0.1,20.6,0.2,36.1,0.2
		c15.8,0,29.5-0.1,41.3-0.2c11.7-0.1,23.6-0.3,35.7-0.5V64.2c0-23.6-1.7-38.1-5.1-43.6c-3.4-5.5-10-8.2-19.7-8.2h-4.8V0
		c8,0.5,15.8,0.8,23.4,1.1c7.7,0.2,15.2,0.4,22.5,0.4c6.3,0,13.2-0.1,20.8-0.4c7.6-0.2,15.6-0.6,24.1-1.1v12.5
		c-0.6,0-1.4-0.1-2.5-0.2c-1.1-0.1-1.8-0.2-2.3-0.2c-9.1,0-15.4,2.9-18.7,8.6c-3.3,5.8-5,18.1-5,36.9c0,3.6,0.1,10.3,0.2,20.3
		c0.1,10,0.2,18.2,0.2,24.6v47.4c0,6.4-0.1,14.6-0.2,24.7c-0.1,10-0.2,16.9-0.2,20.6c0,19.5,1.7,32.2,5,38.1
		c3.3,5.9,9.6,8.9,18.7,8.9c1.7,0,2.9,0,3.8-0.1c0.9-0.1,1.7-0.1,2.4-0.1v12.3c-9.4-0.5-18.1-0.8-26.1-1.1c-8-0.2-14.8-0.4-20.2-0.4
		c-6.4,0-13.6,0.1-21.7,0.4c-8,0.2-16.6,0.6-25.7,1.1v-12.5c0.7,0,1.8,0.1,3.2,0.2c1.4,0.1,2.4,0.2,3,0.2c9.7,0,16.3-2.7,19.7-8
		c3.4-5.3,5.1-18.2,5.1-38.7v-21.6v-39h-2.3c-30.5-0.5-52.9-0.7-67-0.7c-10.7,0-20.9,0.1-30.6,0.4c-1.3,0-2,0-2.1,0
		c-5.1,0-10.6,0-16.6,0.1c-5.9,0.1-12.2,0.2-18.9,0.3v42.4v14.3c0,22.8,1.7,36.9,5.2,42.4c3.4,5.5,10.1,8.2,20,8.2
		c0.6,0,1.6-0.1,3-0.2c1.4-0.1,2.5-0.2,3.2-0.2v12.5c-9.1-0.5-17.7-0.8-25.7-1.1c-8-0.2-15.2-0.4-21.7-0.4c-5.5,0-12.2,0.1-20.1,0.4
		c-8,0.2-16.7,0.6-26.2,1.1V242c0.7,0,1.5,0,2.4,0.1c0.9,0.1,2.1,0.1,3.7,0.1c9.3,0,15.6-3,18.9-8.9c3.3-5.9,5-18.6,5-38.1
		c0-3.7-0.1-10.5-0.2-20.6c-0.1-10-0.2-18.3-0.2-24.7v-47.4c0-5.9,0.1-13.5,0.2-22.7c0.1-9.2,0.2-15.5,0.2-18.8
		c0-20.5-1.7-33.8-5.1-39.9c-3.4-6.1-9.8-9.1-19.2-9.1c-0.4,0-1.1,0.1-2.1,0.2c-1.1,0.1-1.9,0.2-2.5,0.2V0z"/>
</g>
</svg>
