<?xml version="1.0" encoding="utf-8"?>
<!-- Generator: Adobe Illustrator 18.1.0, SVG Export Plug-In . SVG Version: 6.00 Build 0)  -->
<svg version="1.1" id="Layer_1" xmlns="http://www.w3.org/2000/svg" xmlns:xlink="http://www.w3.org/1999/xlink" x="0px" y="0px"
	 viewBox="0 0 792 612" enable-background="new 0 0 792 612" xml:space="preserve">
<g>
	<path fill="#FFFDFD" d="M276.2,230h1.9c2.5,0,4.4-0.3,5.4-0.8c1.1-0.6,1.9-1.6,2.2-3.2c0.3-1,0.6-4.7,0.7-11.1
		c0.1-6.4,0.2-16.2,0.2-29.7v-15.7h-11c-5.3,0-8.9,0.7-10.8,2s-3.3,4-4.1,8.2l-3.6-0.7c0.7-2.8,1.2-5.6,1.6-8.4
		c0.4-2.7,0.6-5.4,0.6-8.2c1.1,0.7,3.3,1,6.6,1.3s9.1,0.4,17.3,0.4h13.2c11,0,18.1-0.1,21.3-0.4c3.2-0.3,5.3-0.7,6.7-1.3
		c0,0.4,0,0.8-0.1,1.6c0,0.8-0.1,1.2-0.1,1.6c0,2.1,0.1,4.2,0.3,6.4c0.2,2.2,0.5,4.5,0.9,6.8l-3.4,0.6c-0.5-3.8-1.5-6.2-3.4-7.6
		c-1.8-1.3-5.5-2.1-11.3-2.2h-10.2c0,1.9-0.1,4.5-0.1,7.9c-0.1,8.9-0.1,15-0.1,18.1c0,11.6,0.1,19.5,0.3,23.6
		c0.2,4.1,0.5,6.8,0.8,7.7c0.5,1.2,1.2,2,2.3,2.4c1.1,0.5,2.7,0.7,5,0.7h1.9v3.5c-3-0.1-5.8-0.2-8.5-0.3c-2.6-0.1-5.1-0.1-7.1-0.1
		c-1.9,0-4.1,0-6.8,0.1c-2.7,0.1-5.6,0.2-8.7,0.3V230H276.2z"/>
	<path fill="#FFFDFD" d="M348.4,157.4c-0.2,5.5-0.3,11.2-0.4,16.9c-0.1,5.7-0.2,11.6-0.2,17.6c4-2.8,7.7-4.9,10.9-6.2s6.1-2,8.7-2
		c5.3,0,9.3,1.4,12,4.1c2.7,2.7,4,6.8,4,12.3c0,0,0,1.5-0.1,4.3c0,2.8-0.1,5.7-0.1,8.5c0,1.2,0,2.7-0.1,4.6c0,1.8-0.1,3.1-0.1,3.8
		c0,3.7,0.4,6.1,1.1,7.2c0.7,1.1,2.1,1.7,4.1,1.7c0.1,0,0.3,0,0.7-0.1c0.3,0,0.6-0.1,0.7-0.1v3.5c-3.3-0.2-5.8-0.3-7.4-0.4
		c-1.7-0.1-3-0.1-4.1-0.1c-1.8,0-3.6,0-5.6,0.1c-2,0.1-4.1,0.2-6.3,0.4l-0.1-3.5h0.8c4.6,0,7-3.8,7.1-11.5c0-0.5,0-0.8,0-0.9
		l0.1-10.6v-2.1c0-6-0.7-9.9-2.3-11.9c-1.6-2-4.2-2.9-8.1-2.9c-2.1,0-4.3,0.5-6.8,1.4c-2.5,0.9-5.4,2.3-8.9,4.4l-0.3,17.4
		c0,0.9,0,2.2-0.1,3.8c0,1.5-0.1,2.6-0.1,3.2c0,4,0.4,6.8,1.1,7.9c0.8,1.2,2.2,1.8,4.2,1.8c0.2,0,0.4,0,0.7-0.1
		c0.3,0,0.6-0.1,0.8-0.1v3.5c-2.2-0.2-4.4-0.3-6.5-0.4c-2-0.1-3.8-0.1-5.2-0.1c-1.4,0-3,0-4.9,0.1s-4.2,0.2-7.2,0.4v-3.4
		c0.2,0,0.6,0,0.9,0.1c0.4,0,0.7,0.1,0.8,0.1c2.5,0,4.2-0.6,5.1-1.8s1.3-4.7,1.3-10.4v-3.7l0.2-37v-8.4c0-1.4-0.4-2.4-1-3.2
		c-0.7-0.8-1.7-1-3-1c-0.5,0-1.3,0.1-2.5,0.3c-0.3,0.1-0.5,0.1-0.6,0.1l-0.8-3.2c3-0.6,5.9-1.1,8.7-1.9
		C342.7,159.2,345.5,158.3,348.4,157.4z"/>
	<path fill="#FFFDFD" d="M443.7,206h-26.4c-2.1,0-3.9,0-5.7,0.1s-3.4,0.2-4.9,0.3v1.8c0,6.5,1.6,11.4,4.9,14.9s7.9,5.2,13.9,5.2
		c2.6,0,5.2-0.4,7.8-1.2c2.5-0.8,5.3-2.1,8.2-3.8l2.2,3.2c-3.8,2.7-7.4,4.9-11.2,6.3s-7.4,2.2-11,2.2c-7,0-12.8-2.2-17.3-6.8
		c-4.6-4.5-6.8-10.4-6.8-17.5c0-7.6,2.3-14,7.1-19.1c4.8-5.2,10.6-7.7,17.4-7.7c6.4,0,11.5,2,15.3,5.8
		C441,193.4,443.2,198.8,443.7,206z M433.7,200.7c-1.1-4-2.7-7.1-5-9.3c-2.2-2.2-4.9-3.2-7.9-3.2c-3.5,0-6.5,1.2-8.9,3.8
		s-4.1,5.9-4.9,10.2c7.1,0,12.8-0.1,16.9-0.4C428.1,201.8,431.3,201.3,433.7,200.7z"/>
</g>
<g>
	<path fill="#FFFDFD" d="M1,130.9c7.9,0.5,15.5,0.8,22.7,1c7.2,0.2,13.8,0.3,19.7,0.3c6.8,0,13.8-0.1,20.9-0.4
		c7.1-0.2,14.4-0.5,21.8-0.9v11.7h-4.5c-9.1,0-15.3,2.4-18.5,7.2c-3.2,4.9-4.8,17.7-4.8,38.6v8.2v41.1c7.2,0.2,14.9,0.4,23,0.5
		s19.3,0.2,33.8,0.2c14.8,0,27.7-0.1,38.7-0.2c11-0.1,22.1-0.3,33.5-0.5v-46.6c0-22.1-1.6-35.7-4.8-40.9c-3.2-5.2-9.4-7.7-18.5-7.7
		h-4.5v-11.6c7.5,0.5,14.8,0.8,21.9,1c7.2,0.2,14.2,0.4,21.1,0.4c5.9,0,12.4-0.1,19.5-0.4c7.1-0.2,14.6-0.6,22.6-1v11.7
		c-0.6,0-1.3-0.1-2.3-0.2c-1-0.1-1.7-0.2-2.2-0.2c-8.5,0-14.4,2.7-17.5,8.1c-3.1,5.4-4.7,17-4.7,34.6c0,3.4,0.1,9.7,0.2,19
		c0.1,9.4,0.2,17.1,0.2,23.1v44.4c0,6-0.1,13.7-0.2,23.2c-0.1,9.4-0.2,15.8-0.2,19.3c0,18.3,1.6,30.2,4.7,35.7
		c3.1,5.5,9,8.3,17.5,8.3c1.6,0,2.7,0,3.6-0.1c0.8-0.1,1.6-0.1,2.2-0.1v11.5c-8.8-0.5-17-0.8-24.5-1c-7.5-0.2-13.9-0.4-18.9-0.4
		c-6,0-12.8,0.1-20.3,0.4c-7.5,0.2-15.6,0.6-24.1,1v-11.7c0.7,0,1.7,0.1,3,0.2s2.2,0.2,2.8,0.2c9.1,0,15.3-2.5,18.5-7.5
		s4.8-17.1,4.8-36.3v-20.2v-36.6h-2.2c-28.6-0.5-49.6-0.7-62.8-0.7c-10,0-19.6,0.1-28.7,0.4c-1.2,0-1.9,0-2,0c-4.8,0-9.9,0-15.6,0.1
		c-5.5,0.1-11.4,0.2-17.7,0.3v39.8v13.4c0,21.4,1.6,34.6,4.9,39.8c3.2,5.2,9.5,7.7,18.8,7.7c0.6,0,1.5-0.1,2.8-0.2s2.3-0.2,3-0.2
		v11.7c-8.5-0.5-16.6-0.8-24.1-1c-7.5-0.2-14.2-0.4-20.3-0.4c-5.2,0-11.4,0.1-18.8,0.4c-7.5,0.2-15.7,0.6-24.6,1v-11.6
		c0.7,0,1.4,0,2.2,0.1s2,0.1,3.5,0.1c8.7,0,14.6-2.8,17.7-8.3c3.1-5.5,4.7-17.4,4.7-35.7c0-3.5-0.1-9.8-0.2-19.3
		c-0.1-9.4-0.2-17.2-0.2-23.2V227c0-5.5,0.1-12.7,0.2-21.3s0.2-14.5,0.2-17.6c0-19.2-1.6-31.7-4.8-37.4s-9.2-8.5-18-8.5
		c-0.4,0-1,0.1-2,0.2c-1,0.1-1.8,0.2-2.3,0.2L1,130.9L1,130.9z"/>
</g>
<g>
	<path fill="#FFFDFD" d="M329,326.7h-37.2c-2.9,0-5.5,0.1-8,0.2c-2.4,0.1-4.7,0.3-6.8,0.5v2.8c0,9.9,2.3,17.6,6.9,23.1
		s11.1,8.2,19.5,8.2c3.8,0,7.4-0.7,11-1.9c3.6-1.2,7.4-3.2,11.5-5.8l3,4.9c-5.2,4.3-10.4,7.5-15.7,9.7c-5.2,2.2-10.3,3.3-15.5,3.3
		c-9.8,0-18-3.6-24.4-10.6c-6.4-7-9.6-16-9.6-27.1c0-11.7,3.4-21.6,10-29.5c6.8-8,14.9-12,24.6-12c9,0,16.1,3,21.5,9
		C325.1,307.3,328.2,315.8,329,326.7z M314.8,318.7c-1.5-6.3-3.8-11.1-6.9-14.3c-3.1-3.3-6.8-5-11.2-5c-4.9,0-9.1,2-12.6,5.9
		s-5.7,9.2-6.8,15.8c10,0,18-0.2,23.7-0.6C306.9,320.2,311.5,319.5,314.8,318.7z"/>
	<path fill="#FFFDFD" d="M364.3,291.4c-0.1,2-0.1,4.7-0.2,8.2c-0.7,20.4-1,34.8-1,43.1v8.1c0,5.9,0.6,9.6,1.7,11.2
		c1.1,1.5,3.3,2.2,6.6,2.2c0.3,0,0.8,0,1.2-0.1c0.5-0.1,0.8-0.1,1.1-0.1v5.2c-4.3-0.3-7.8-0.5-10.4-0.7c-2.6-0.1-4.9-0.2-6.8-0.2
		c-1.6,0-3.7,0.1-6.2,0.2c-2.5,0.1-6.3,0.3-11.3,0.7v-5.3h1.9c6.3,0,9.5-6.2,9.6-18.6c0-1.8,0-3.2,0-4.2l0.3-18.8
		c0-1.4,0-3.1,0.1-5.2c0.1-2.1,0.1-3.5,0.1-4.2c0-4.1-0.4-6.8-1.2-8.2c-0.8-1.3-2.2-2-4.3-2c-0.4,0-1,0-1.8,0.1
		c-0.8,0.1-1.6,0.2-2.5,0.3l-0.8-4.8c4-0.8,8-1.7,12-2.9C356.2,294.4,360.3,293,364.3,291.4z M356.1,255.6l5.4,4
		c1.4,1,2.4,2.2,3.1,3.2s1,2.2,1,3.4c0,1.1-0.3,2.2-0.8,3s-1.5,1.8-3,2.9l-5.7,4.3l-5.3-4.2c-1.5-1.1-2.5-2.2-3.2-3.3
		c-0.7-1-1-2.1-1-3.2c0-1.1,0.3-2.1,0.8-2.9c0.5-0.8,1.6-1.9,3.1-3L356.1,255.6z"/>
	<path fill="#FFFDFD" d="M409.1,291.4c-0.3,7.8-0.6,15.8-0.8,23.8s-0.3,16.6-0.3,25.8v10.7c0,12.8-0.2,21.6-0.7,26.6
		c-0.4,5-1.1,8.8-2.2,11.4c-2.3,6.3-6.2,11.2-11.5,14.8c-5.2,3.7-11.2,5.5-17.8,5.5h-1.9l0.3-6.1c7.7-0.7,13.1-3.6,16.4-8.8
		s4.9-14,4.9-26.2v-55.1c0-4.8-0.4-7.9-1.1-9.2s-2.2-1.9-4.2-1.9c-0.5,0-1,0-1.6,0.1c-0.7,0.1-1.4,0.2-2.2,0.3l-0.9-4.8
		c4.4-0.8,8.5-1.8,12.4-3C401.8,294.3,405.6,293,409.1,291.4z M400.8,255.6l5.5,4c1.4,1,2.3,2.2,3,3.2c0.7,1,1,2.2,1,3.4
		c0,1.1-0.3,2.2-0.7,3s-1.5,1.8-3,2.9l-5.8,4.3l-5.2-4.2c-1.5-1.1-2.6-2.2-3.3-3.3c-0.7-1-1-2.1-1-3.2c0-1.1,0.3-2.1,0.8-2.9
		c0.6-0.8,1.6-1.9,3.2-3L400.8,255.6z"/>
	<path fill="#FFFDFD" d="M451.4,291.4c-0.2,2.1-0.4,4.1-0.6,6.1c-0.2,2-0.3,3.9-0.3,5.9c6.9-4.4,12.3-7.3,16.1-8.8
		c3.8-1.5,7.6-2.2,11.2-2.2c4.3,0,8,1,11,3c3,2,5.6,5.1,7.7,9.4c6.8-4.5,12.4-7.7,16.7-9.6c4.3-1.9,8.2-2.8,11.6-2.8
		c7.4,0,12.8,2.2,16.2,6.8c3.4,4.5,5.1,11.8,5.1,21.9v1.6l-0.3,25c0,2.5-0.1,4.9-0.2,6.9c0,0.2,0,0.3,0,0.3c0,3.7,0.6,6.1,1.7,7.2
		s3.4,1.8,6.8,1.8h1.8v5.3c-5-0.3-8.6-0.5-11.1-0.7c-2.4-0.1-4.4-0.2-5.9-0.2c-1.6,0-3.7,0.1-6.1,0.2c-2.4,0.1-5.8,0.3-10.3,0.7
		v-5.3c0.3,0.1,0.7,0.1,1.1,0.1s1.1,0,1.9,0c3.3,0,5.4-1,6.5-3.2c1.1-2.1,1.6-7.2,1.6-15.4v-11.2c0-1.9,0-4.2,0.1-7.2
		s0.1-5.1,0.1-6.3c0-6.5-1.2-11.2-3.6-14.3c-2.3-3-6-4.6-11-4.6c-2.3,0-5.2,0.7-8.5,1.9c-3.3,1.3-7.4,3.3-12.3,6.1l-0.6,37.6v6.3
		c0,4.6,0.6,7.4,1.7,8.5c1.1,1.1,3.5,1.6,7,1.6h0.9v5.2c-4-0.2-7.4-0.4-10-0.5c-2.7-0.1-5-0.2-6.9-0.2c-2,0-4.2,0.1-6.8,0.2
		c-2.6,0.1-5.3,0.3-8.2,0.6l-0.1-5.3c3.6,0,5.9-0.3,6.9-0.8s1.9-2,2.3-4c0.4-1.7,0.7-5.9,0.8-12.8c0.2-6.8,0.3-15.5,0.3-26.2
		c0-6.4-1.1-11-3.4-13.8c-2.3-2.9-5.8-4.3-10.8-4.3c-2.3,0-5.2,0.7-8.5,1.9s-7.3,3.2-12,5.8c-0.3,8.2-0.6,15.5-0.7,21.6
		c-0.1,6.1-0.2,11.6-0.2,16.6c0,7.8,0.6,12.4,1.6,14c1,1.5,3.3,2.2,6.6,2.2c0.3,0,0.7,0,1.2-0.1c0.6-0.1,0.9-0.1,1.3-0.1l-0.1,5.3
		c-3.2-0.3-6.2-0.5-9.2-0.6c-2.9-0.1-5.7-0.2-8.3-0.2c-2.2,0-4.7,0.1-7.5,0.2c-2.7,0.1-5.6,0.3-8.7,0.6l-0.1-5.3h1.4
		c6.4,0,9.6-6.2,9.6-18.5c0-1.9,0-3.3,0.1-4.3l0.2-18.7v-7.5c0-5-0.4-8.2-1.1-9.7c-0.7-1.6-2.2-2.3-4.2-2.3c-0.4,0-0.9,0.1-1.6,0.2
		c-0.7,0.1-1.3,0.3-2.1,0.5l-0.9-4.7c3.8-1,7.5-2.2,11.3-3.4C443.9,294.2,447.7,292.9,451.4,291.4z"/>
	<path fill="#FFFDFD" d="M633.8,358.2l2.2,4.8c-3.8,2.7-7.3,4.9-10.4,6.4c-3.2,1.5-5.7,2.3-7.6,2.3c-3.3,0-5.7-0.9-7.3-2.8
		s-2.5-4.8-2.6-8.6c-5.5,3.8-10.1,6.4-13.8,8c-3.7,1.6-6.9,2.4-9.8,2.4c-5.2,0-9.4-2-12.8-5.8c-3.5-3.8-5.2-8.6-5.2-14.2
		c0-9.5,10.2-16.7,30.7-21.5c4.8-1.1,8.6-2,11.2-2.6c0-0.8,0-2.1,0.1-3.8c0.2-3.4,0.2-5.5,0.2-6.6c0-5.2-1.1-9.2-3.3-11.7
		c-2.2-2.5-5.5-3.8-9.9-3.8c-4.4,0-7.8,0.8-10.3,2.4s-3.8,3.8-3.8,6.5c0,0.3,0,0.6,0.1,1c0.1,0.5,0.1,0.8,0.1,0.9
		c0,1.6-0.8,2.9-2.2,3.9s-3.4,1.6-5.5,1.6c-1.9,0-3.2-0.3-4-0.9c-0.8-0.7-1.3-1.6-1.3-2.8c0-4,3.5-8.6,10.3-13.6s14-7.5,21.3-7.5
		c7,0,12.4,2,16,5.8c3.7,3.8,5.5,9.6,5.5,17.1c0,4-0.3,10.3-0.7,18.8s-0.8,14.8-0.8,19.2c0,3.3,0.4,5.5,1.1,6.8
		c0.8,1.1,2.1,1.8,3.9,1.8c0.8,0,1.9-0.3,3.2-0.8C629.2,360.3,631.2,359.4,633.8,358.2z M607.8,332.4c-0.9,0.3-2.4,0.7-4.3,1.1
		c-16.5,4.5-24.8,9.8-24.8,16c0,3.4,1,6.1,3.2,8.2s5,3.2,8.4,3.2c2.2,0,4.6-0.6,7.4-1.7s6-2.9,9.8-5.3L607.8,332.4z"/>
	<path fill="#FFFDFD" d="M664.3,291.4l-0.9,12.8c5.7-4.1,10.7-7.2,15-9.1c4.2-1.9,8.2-2.8,11.7-2.8c7.5,0,13,2.1,16.9,6.3
		c3.8,4.2,5.6,10.5,5.6,18.9c0,0.1,0,2.2-0.1,6.8c-0.1,4.4-0.1,8.8-0.1,13.2c0,1.9,0,4.2-0.1,7c-0.1,2.8-0.1,4.8-0.1,5.7
		c0,5.7,0.5,9.4,1.5,11.2c1,1.7,2.9,2.6,5.8,2.6c0.2,0,0.5,0,0.8-0.1c0.5-0.1,0.8-0.1,0.9-0.1v5.3c-4.6-0.3-8.1-0.5-10.4-0.7
		c-2.3-0.1-4.3-0.2-5.9-0.2c-2.4,0-5.1,0.1-8,0.2c-2.8,0.1-5.7,0.3-8.7,0.6l-0.1-5.3h1.1c6.5,0,9.8-5.9,9.9-17.8
		c0.1-0.7,0.1-1.1,0.1-1.5l0.2-16.4v-2.7c0-9.4-1.1-15.7-3.3-18.7c-2.2-3.1-5.9-4.6-11.2-4.6c-2.9,0-6.2,0.7-9.8,2.1
		c-3.6,1.4-7.4,3.5-11.3,6.2c-0.2,5.2-0.4,10.3-0.5,15s-0.2,8.9-0.2,12.8v10.5c0,6.8,0.5,11,1.5,12.8c1,1.8,2.9,2.6,5.8,2.6
		c0.2,0,0.6,0,0.9-0.1c0.5-0.1,0.8-0.1,1-0.1v5.3c-4.4-0.3-7.8-0.5-10.3-0.7c-2.5-0.1-4.6-0.2-6.2-0.2c-1.5,0-3.6,0.1-6,0.2
		c-2.5,0.1-6,0.3-10.4,0.7l-0.1-5.3h1.4c6.4,0,9.6-6.2,9.6-18.5c0-1.9,0-3.3,0.1-4.3l0.2-18.7v-7.5c0-5-0.4-8.2-1.1-9.7
		c-0.8-1.6-2.2-2.3-4.2-2.3c-0.4,0-0.9,0.1-1.6,0.2c-0.7,0.1-1.3,0.3-2.1,0.5l-0.9-4.7c3.8-0.8,7.6-1.7,11.4-2.9
		C656.3,294.6,660.3,293.2,664.3,291.4z"/>
	<path fill="#FFFDFD" d="M783,295.4c0,3.1,0.2,6.3,0.5,9.4c0.4,3.2,0.8,6.3,1.4,9.6l-5.8,0.9c-0.7-5.2-2.2-9.2-5.1-11.8
		c-2.7-2.6-6.6-3.8-11.5-3.8c-4.3,0-7.8,1.1-10.5,3.5c-2.7,2.3-4.1,5.3-4.1,8.8c0,5.6,6,10.1,18,13.4c2.1,0.6,3.7,1,4.8,1.3
		c6,1.7,10.4,4,13.1,7.1c2.8,3.1,4.1,7.1,4.1,12.2c0,7.4-2.9,13.5-8.7,18.4c-5.8,4.8-13.3,7.2-22.3,7.2c-3.3,0-6.7-0.4-10.1-1
		c-3.5-0.8-6.9-1.8-10.6-3.2c0.1-0.5,0.1-1,0.1-1.6c0-0.6,0-1.4,0-2.6c0-2.3-0.2-4.9-0.4-7.6c-0.3-2.7-0.7-5.6-1.2-8.6l5.7-1.4
		c0.8,6.3,2.8,11,5.9,14.2c3.2,3.1,7.5,4.7,13.1,4.7c5.1,0,9.2-1.2,12.5-3.7c3.2-2.4,4.9-5.6,4.9-9.6c0-5.5-5.3-9.8-16.1-13.1
		c-1-0.4-1.9-0.6-2.3-0.8c-7.7-2.3-13.1-5.2-16.2-8.6s-4.7-8-4.7-13.6c0-6.5,2.6-11.9,7.8-16.2s11.8-6.5,19.9-6.5
		c2.5,0,5.2,0.3,8.2,0.8C776,293.5,779.2,294.3,783,295.4z"/>
</g>
<g>
	<path fill="#FFFDFD" d="M150,475.2c0.4,0,0.7,0.1,0.9,0.1s0.8,0,1.5,0c3.3,0,5.5-1.1,6.8-3.3c1.2-2.2,1.8-7,1.8-14.6
		c0-1.2,0-3.5-0.1-6.7c0-3.2-0.1-5.8-0.1-7.9v-17c0-2.2,0-5.9,0.1-10.8c0-4.9,0.1-8.6,0.1-11.2c0-3.6-0.7-6-2.1-7.4
		c-1.3-1.4-3.8-2.1-7-2.1h-1v-4.1c8.6,0.2,15.6,0.4,20.9,0.5c5.3,0.1,9.8,0.2,13.5,0.2c4,0,8.3-0.1,13-0.2c4.7-0.1,9.8-0.3,15.7-0.5
		c0,2.9,0.1,5.9,0.3,9.1c0.2,3.2,0.5,6.8,0.8,10.8l-4.3,0.5c-0.3-5.2-1.8-8.8-4.4-10.7c-2.6-1.8-8.6-2.7-17.8-2.7
		c-3.3,0-8.2,0.1-15.1,0.3h-0.4c-0.1,6.2-0.2,12.9-0.4,20.5c-0.2,7.5-0.3,11.7-0.3,12.6h2.1c2.3,0,5.3,0,8.6,0.1
		c3.5,0,5.8,0.1,7,0.1c6.1,0,10.1-0.6,12.1-1.7s3-3.2,3.2-6.2l3.9,0.3c-0.4,3.1-0.6,5.7-0.7,7.7c-0.1,2-0.2,3.8-0.2,5.5
		c0,1.2,0,2.7,0.1,4.4s0.2,3.7,0.3,5.7l-4.1,0.3v-1c0-3.4-1-5.7-3.1-6.9c-2.1-1.2-6.7-1.9-14.2-1.9h-10.7h-4.5v24.2
		c0,6,0.7,9.8,2,11.3c1.3,1.6,4,2.3,8.1,2.3h2.4v4.3c-3.2-0.2-6.3-0.3-9.3-0.4c-3.1-0.1-6-0.1-8.9-0.1c-1.5,0-3.7,0-6.7,0.1
		c-3,0.1-6.3,0.2-10,0.4L150,475.2L150,475.2z"/>
	<path fill="#FFFDFD" d="M251.1,416.3c8.7,0,16,2.9,21.8,8.8c5.7,5.9,8.6,13.1,8.6,21.8c0,9.6-3,17.6-9.1,24.1
		c-6.1,6.6-13.5,9.8-22.4,9.8s-16.2-3-21.8-9c-5.7-6-8.5-13.5-8.5-22.7c0-9.1,3.1-16.9,9.3-23.3C235,419.5,242.4,416.3,251.1,416.3z
		 M249.5,422.9c-5.5,0-10,2.1-13.4,6.1c-3.4,4-5.1,9.5-5.1,16.3c0,8.7,1.9,15.8,5.6,21.3c3.8,5.4,8.6,8.2,14.6,8.2
		c5.8,0,10.4-2.2,13.9-6.5s5.2-10.2,5.2-17.6c0-8.2-2-14.8-5.9-20C260.5,425.4,255.6,422.9,249.5,422.9z"/>
	<path fill="#FFFDFD" d="M308.3,416.2c-0.3,8.2-0.6,15.3-0.7,21.4c-0.2,6.1-0.3,10.4-0.3,12.8c0,8.9,0.9,14.8,2.7,17.8
		c1.8,3,5,4.4,9.4,4.4c2.2,0,4.7-0.6,7.3-1.6c2.7-1.1,5.8-2.7,9.2-4.9c0.1-6.4,0.2-11.6,0.3-15.8c0.1-4.1,0.1-7.2,0.1-9.2v-4.2
		c0-5.2-0.5-8.5-1.3-9.8s-2.5-2-5.1-2c-0.4,0-0.8,0-1.3,0s-0.9,0.1-1.5,0.1l-0.4-4c3.6-0.3,7-0.7,10.4-1.2c3.5-0.6,6.8-1.2,10-2
		c-0.3,7.1-0.5,13.4-0.6,19c-0.1,5.5-0.2,10.4-0.2,14.5c0,1.7,0,3.8-0.1,6.4c0,2.5-0.1,4.2-0.1,5.1c0,3.8,0.4,6.4,1,7.6
		c0.7,1.2,1.9,1.8,3.8,1.8c0.4,0,0.9,0,1.5-0.1s1.3-0.3,2.2-0.5l0.5,3.8l-19,4.8l-0.3-9.3c-4.5,3.4-8.4,5.9-11.8,7.5
		c-3.4,1.6-6.5,2.3-9.3,2.3c-5.7,0-10.1-1.6-13.3-4.9c-3.2-3.3-4.8-7.9-4.8-13.7c0-1.5,0.1-4.6,0.2-9.4c0-2,0.1-3.6,0.1-4.7l0.2-6.9
		c0-1.1,0-2.6,0.1-4.4c0-1.8,0.1-3,0.1-3.8c0-3.6-0.3-5.9-0.9-7.1c-0.6-1.1-1.7-1.8-3.4-1.8c-0.5,0-1.1,0-1.8,0.1
		c-0.7,0.1-1.3,0.2-2.1,0.3l-0.5-4c3-0.5,6.1-1.1,9.3-1.9C301.6,418.1,304.9,417.3,308.3,416.2z"/>
	<path fill="#FFFDFD" d="M383.9,415.6l-0.8,10.5c4.7-3.4,8.8-5.9,12.2-7.4c3.5-1.5,6.7-2.3,9.6-2.3c6.1,0,10.7,1.7,13.8,5.2
		s4.6,8.6,4.6,15.5c0,0,0,1.9-0.1,5.4c0,3.7-0.1,7.2-0.1,10.9c0,1.5,0,3.5-0.1,5.7c0,2.3-0.1,3.8-0.1,4.7c0,4.7,0.4,7.7,1.2,9.1
		s2.4,2.2,4.7,2.2c0.1,0,0.4,0,0.7-0.1c0.4,0,0.7-0.1,0.8-0.1v4.3c-3.8-0.3-6.6-0.4-8.4-0.5s-3.5-0.1-4.8-0.1c-2,0-4.1,0.1-6.5,0.2
		s-4.7,0.3-7.1,0.5l-0.1-4.3h0.9c5.3,0,8-4.9,8.1-14.5c0-0.6,0.1-0.9,0.1-1.2l0.1-13.4v-2.2c0-7.7-0.9-12.8-2.7-15.3
		c-1.8-2.5-4.9-3.8-9.2-3.8c-2.4,0-5.1,0.6-8,1.7s-6,2.8-9.3,5.1c-0.2,4.3-0.3,8.4-0.4,12.2c-0.1,3.8-0.1,7.3-0.1,10.4v8.6
		c0,5.4,0.4,8.9,1.2,10.4c0.8,1.5,2.4,2.2,4.8,2.2c0.2,0,0.5,0,0.7-0.1c0.4,0,0.7-0.1,0.8-0.1v4.3c-3.6-0.3-6.4-0.4-8.4-0.5
		c-2.1-0.1-3.8-0.1-5.1-0.1c-1.2,0-2.9,0-4.9,0.1c-2.1,0.1-4.9,0.3-8.5,0.5l-0.1-4.3h1.2c5.2,0,7.8-5.1,7.9-15.1
		c0-1.5,0-2.6,0.1-3.5l0.1-15.3v-6.2c0-4-0.3-6.8-0.9-8c-0.7-1.3-1.8-1.9-3.5-1.9c-0.4,0-0.8,0-1.3,0.1c-0.6,0.1-1,0.2-1.7,0.4
		l-0.8-3.8c3.1-0.6,6.3-1.4,9.4-2.3C377.4,418.2,380.6,417,383.9,415.6z"/>
	<path fill="#FFFDFD" d="M496.1,382.7l-0.1,1.1c-0.5,14.7-0.9,29-1.2,42.8l-0.1,9.8c-0.1,2.2-0.2,5.3-0.2,9.1
		c-0.1,3.8-0.1,8-0.1,12.6v2.4c0,6.5,0.2,10.5,0.7,12.1c0.5,1.6,1.3,2.3,2.7,2.3c0.7,0,1.6-0.1,2.4-0.3c0.8-0.2,1.7-0.4,2.6-0.7
		l1,3.9c-2.9,1.1-5.7,2-8.5,2.5s-5.6,0.8-8.4,0.8l-1.8-0.1c-0.3-1.8-0.5-3.5-0.7-5c-0.2-1.5-0.2-3-0.2-4.3c-4.7,3-8.6,5.2-11.7,6.3
		c-3.1,1.1-6.1,1.8-9,1.8c-7.2,0-13.2-2.7-17.7-8.2c-4.6-5.5-6.8-12.7-6.8-21.5c0-9.8,2.9-17.7,8.8-23.7c5.8-6,13.4-9,22.8-9
		c2.2,0,4.3,0.2,6.7,0.6s4.9,1,7.6,1.9c0-0.4,0-0.9,0.1-1.7c0.2-7.2,0.3-13.8,0.3-19.6c0-2.6-0.4-4.5-1.2-5.5
		c-0.8-1.1-2.2-1.6-4-1.6c-0.4,0-0.9,0.1-1.6,0.2c-0.7,0.1-1.5,0.3-2.5,0.5l-0.7-4c3.1-0.6,6.4-1.2,9.8-2.1
		C488.4,384.8,492.2,383.9,496.1,382.7z M484.7,428.1c-2.8-1.6-5.4-2.7-7.9-3.5c-2.5-0.8-5-1.1-7.5-1.1c-6.4,0-11.3,2-14.8,6
		c-3.5,4-5.3,9.7-5.3,16.9c0,7.7,1.7,13.9,5.2,18.4c3.4,4.5,8,6.8,13.7,6.8c2.2,0,4.7-0.5,7.4-1.3c2.6-0.8,5.6-2.2,8.8-4
		L484.7,428.1z"/>
	<path fill="#FFFDFD" d="M566.4,470.2l1.8,3.9c-3.1,2.2-6,3.9-8.5,5.2c-2.5,1.2-4.7,1.9-6.2,1.9c-2.6,0-4.7-0.7-6-2.3
		c-1.3-1.6-2.1-3.9-2.2-7c-4.5,3-8.2,5.2-11.2,6.5s-5.6,2-8.1,2c-4.2,0-7.7-1.6-10.5-4.7c-2.8-3.2-4.2-7-4.2-11.6
		c0-7.8,8.3-13.6,25.1-17.5c3.9-0.9,7-1.6,9.2-2.2c0-0.7,0-1.7,0.1-3.1c0.1-2.7,0.2-4.5,0.2-5.3c0-4.3-0.9-7.5-2.7-9.6
		c-1.8-2.1-4.5-3.1-8.2-3.1c-3.6,0-6.4,0.7-8.4,2c-2.1,1.3-3.1,3.1-3.1,5.3c0,0.2,0,0.5,0.1,0.8c0,0.4,0.1,0.7,0.1,0.7
		c0,1.3-0.7,2.3-1.9,3.2c-1.2,0.8-2.7,1.3-4.5,1.3c-1.5,0-2.6-0.3-3.3-0.8c-0.8-0.5-1-1.3-1-2.3c0-3.3,2.8-7,8.4-11.2
		c5.6-4.1,11.4-6.1,17.3-6.1c5.8,0,10.1,1.6,13.1,4.8s4.5,7.9,4.5,14c0,3.3-0.2,8.4-0.6,15.3c-0.4,6.8-0.6,12.1-0.6,15.7
		c0,2.7,0.3,4.5,0.9,5.4c0.6,0.9,1.7,1.4,3.2,1.4c0.7,0,1.5-0.2,2.6-0.6C562.8,471.8,564.4,471.2,566.4,470.2z M545.2,449.2
		c-0.8,0.2-2,0.6-3.6,0.9c-13.5,3.7-20.2,8.1-20.2,13c0,2.7,0.8,5,2.6,6.7c1.8,1.7,4,2.6,6.9,2.6c1.8,0,3.8-0.5,6-1.4
		c2.3-0.9,5-2.3,8-4.3L545.2,449.2z"/>
	<path fill="#FFFDFD" d="M587.5,406.3l4.1,1.2c-0.3,2.2-0.5,4.3-0.6,6.1c-0.2,1.8-0.3,3.6-0.3,5.3h4.4c2.3,0,4.8,0,7.2-0.1
		c2.4-0.1,4.9-0.2,7.4-0.3l-1.5,6.8c-2.6-0.2-5.2-0.4-7.5-0.4c-2.3-0.1-4.7-0.1-7-0.1h-2.9c-0.3,7.1-0.5,12.6-0.6,16.4
		s-0.2,6.9-0.2,9.5c0,9.4,0.7,15.5,2,18.4c1.3,2.8,3.6,4.2,6.9,4.2c1.4,0,2.9-0.3,4.6-0.8c1.7-0.6,3.8-1.5,6.1-2.9l2.1,4.1
		c-4,2.4-7.6,4.2-10.9,5.4s-6.1,1.9-8.4,1.9c-4.4,0-7.7-1.5-9.8-4.6c-2.1-3.1-3.1-8-3.1-14.7c0-1.3,0.1-6.1,0.3-14.3
		c0.2-8.2,0.3-15.7,0.3-22.4c-0.4,0-0.9,0-1.6,0.1c-3.5,0.1-5.8,0.2-7.1,0.2v-4.5c4-0.6,7.4-2.1,10.1-4.5
		C584.3,413.9,586.3,410.5,587.5,406.3z"/>
	<path fill="#FFFDFD" d="M638.4,415.6c0,1.6-0.1,3.8-0.2,6.8c-0.6,16.7-0.8,28.4-0.8,35.2v6.6c0,4.8,0.5,7.9,1.4,9.1
		s2.7,1.9,5.3,1.9c0.3,0,0.6,0,1-0.1c0.4,0,0.8-0.1,0.9-0.1v4.2c-3.6-0.3-6.4-0.4-8.5-0.5c-2.2-0.1-3.9-0.1-5.4-0.1
		c-1.3,0-3,0-5.1,0.1c-2.1,0.1-5.2,0.3-9.3,0.5v-4.3h1.6c5.2,0,7.8-5.1,7.8-15.2c0-1.4,0-2.6,0-3.5l0.3-15.4c0-1.1,0-2.5,0.1-4.2
		c0-1.7,0.1-2.8,0.1-3.5c0-3.4-0.3-5.6-0.9-6.7c-0.7-1.1-1.8-1.6-3.6-1.6c-0.4,0-0.8,0-1.5,0.1c-0.7,0.1-1.3,0.1-2.1,0.2l-0.7-3.9
		c3.3-0.7,6.6-1.4,9.8-2.3C631.9,418,635.2,416.9,638.4,415.6z M631.7,386.2l4.4,3.3c1.1,0.8,2,1.8,2.5,2.6c0.6,0.8,0.8,1.8,0.8,2.7
		s-0.2,1.8-0.7,2.4c-0.5,0.7-1.2,1.5-2.4,2.4l-4.7,3.6l-4.3-3.5c-1.2-0.9-2.1-1.9-2.6-2.6c-0.6-0.8-0.8-1.7-0.8-2.6s0.2-1.7,0.7-2.4
		c0.4-0.7,1.2-1.5,2.5-2.4L631.7,386.2z"/>
	<path fill="#FFFDFD" d="M687.5,416.3c8.7,0,16,2.9,21.8,8.8c5.7,5.9,8.6,13.1,8.6,21.8c0,9.6-3,17.6-9.1,24.1s-13.5,9.8-22.4,9.8
		s-16.2-3-21.8-9c-5.7-6-8.5-13.5-8.5-22.7c0-9.1,3.1-16.9,9.3-23.3C671.4,419.5,678.8,416.3,687.5,416.3z M685.9,422.9
		c-5.5,0-10,2.1-13.4,6.1c-3.4,4-5.1,9.5-5.1,16.3c0,8.7,1.9,15.8,5.6,21.3s8.6,8.2,14.6,8.2c5.8,0,10.4-2.2,13.9-6.5
		s5.2-10.2,5.2-17.6c0-8.2-2-14.8-5.9-20C696.9,425.4,692,422.9,685.9,422.9z"/>
	<path fill="#FFFDFD" d="M745.4,415.6l-0.8,10.5c4.7-3.4,8.8-5.9,12.2-7.4c3.5-1.5,6.7-2.3,9.6-2.3c6.1,0,10.7,1.7,13.8,5.2
		s4.6,8.6,4.6,15.5c0,0,0,1.9-0.1,5.4c0,3.7-0.1,7.2-0.1,10.9c0,1.5,0,3.5-0.1,5.7c0,2.3-0.1,3.8-0.1,4.7c0,4.7,0.4,7.7,1.2,9.1
		s2.4,2.2,4.7,2.2c0.1,0,0.4,0,0.8-0.1c0.4,0,0.7-0.1,0.8-0.1v4.3c-3.8-0.3-6.6-0.4-8.4-0.5s-3.5-0.1-4.8-0.1c-2,0-4.1,0.1-6.5,0.2
		s-4.7,0.3-7.1,0.5l-0.1-4.3h0.9c5.3,0,8-4.9,8.1-14.5c0-0.6,0.1-0.9,0.1-1.2l0.1-13.4v-2.2c0-7.7-0.9-12.8-2.7-15.3
		c-1.8-2.5-4.9-3.8-9.2-3.8c-2.4,0-5.1,0.6-8,1.7s-6,2.8-9.3,5.1c-0.2,4.3-0.3,8.4-0.4,12.2c-0.1,3.8-0.1,7.3-0.1,10.4v8.6
		c0,5.4,0.4,8.9,1.2,10.4c0.8,1.5,2.4,2.2,4.8,2.2c0.2,0,0.5,0,0.8-0.1c0.4,0,0.7-0.1,0.8-0.1v4.3c-3.6-0.3-6.4-0.4-8.4-0.5
		s-3.8-0.1-5.1-0.1c-1.2,0-2.9,0-4.9,0.1c-2.1,0.1-4.9,0.3-8.5,0.5l-0.1-4.3h1.2c5.2,0,7.8-5.1,7.9-15.1c0-1.5,0-2.6,0.1-3.5
		l0.1-15.3v-6.2c0-4-0.3-6.8-0.9-8c-0.7-1.3-1.8-1.9-3.5-1.9c-0.4,0-0.8,0-1.3,0.1c-0.6,0.1-1,0.2-1.7,0.4l-0.7-3.8
		c3.1-0.6,6.3-1.4,9.4-2.3C738.8,418.2,742.1,417,745.4,415.6z"/>
</g>
</svg>
