<?xml version="1.0" encoding="utf-8"?>
<!-- Generator: Adobe Illustrator 18.1.0, SVG Export Plug-In . SVG Version: 6.00 Build 0)  -->
<svg version="1.1" id="Layer_1" xmlns="http://www.w3.org/2000/svg" xmlns:xlink="http://www.w3.org/1999/xlink" x="0px" y="0px"
	 viewBox="0 0 844.8 373.6" enable-background="new 0 0 844.8 373.6" xml:space="preserve">
<g>
	<path d="M294.6,105.7h2c2.7,0,4.7-0.3,5.8-0.9c1.2-0.6,2-1.7,2.4-3.4c0.3-1.1,0.6-5,0.7-11.8c0.1-6.8,0.2-17.3,0.2-31.7V41.2h-11.7
		c-5.7,0-9.5,0.7-11.5,2.1c-2,1.4-3.5,4.3-4.4,8.7l-3.8-0.7c0.7-3,1.3-6,1.7-9c0.4-2.9,0.6-5.8,0.6-8.7c1.2,0.7,3.5,1.1,7,1.4
		c3.5,0.3,9.7,0.4,18.5,0.4h14.1c11.7,0,19.3-0.1,22.7-0.4c3.4-0.3,5.7-0.7,7.1-1.4c0,0.4,0,0.9-0.1,1.7c0,0.8-0.1,1.3-0.1,1.7
		c0,2.2,0.1,4.5,0.3,6.8c0.2,2.3,0.5,4.8,1,7.2l-3.6,0.6c-0.5-4-1.6-6.6-3.6-8.1c-1.9-1.4-5.9-2.2-12.1-2.4h-10.9
		c0,2-0.1,4.8-0.1,8.4c-0.1,9.5-0.1,16-0.1,19.3c0,12.4,0.1,20.8,0.3,25.2c0.2,4.4,0.5,7.2,0.9,8.2c0.5,1.3,1.3,2.1,2.5,2.6
		c1.2,0.5,2.9,0.7,5.3,0.7h2v3.7c-3.2-0.1-6.2-0.2-9.1-0.3c-2.8-0.1-5.4-0.1-7.6-0.1c-2,0-4.4,0-7.3,0.1c-2.9,0.1-6,0.2-9.3,0.3
		V105.7z"/>
	<path d="M371.6,28.3c-0.2,5.9-0.3,11.9-0.4,18c-0.1,6.1-0.2,12.4-0.2,18.8c4.3-3,8.2-5.2,11.6-6.6c3.4-1.4,6.5-2.1,9.3-2.1
		c5.7,0,9.9,1.5,12.8,4.4c2.9,2.9,4.3,7.3,4.3,13.1c0,0,0,1.6-0.1,4.6c0,3-0.1,6.1-0.1,9.1c0,1.3,0,2.9-0.1,4.9c0,1.9-0.1,3.3-0.1,4
		c0,3.9,0.4,6.5,1.2,7.7c0.8,1.2,2.2,1.8,4.4,1.8c0.1,0,0.3,0,0.7-0.1c0.3,0,0.6-0.1,0.8-0.1v3.7c-3.5-0.2-6.2-0.3-7.9-0.4
		c-1.8-0.1-3.2-0.1-4.4-0.1c-1.9,0-3.8,0-6,0.1c-2.1,0.1-4.4,0.2-6.7,0.4l-0.1-3.7h0.9c4.9,0,7.5-4.1,7.6-12.3c0-0.5,0-0.8,0-1
		l0.1-11.3V79c0-6.4-0.8-10.6-2.5-12.7c-1.7-2.1-4.5-3.1-8.6-3.1c-2.2,0-4.6,0.5-7.3,1.5c-2.7,1-5.8,2.5-9.5,4.7L371,88
		c0,1,0,2.4-0.1,4c0,1.6-0.1,2.8-0.1,3.4c0,4.3,0.4,7.2,1.2,8.4c0.8,1.3,2.3,1.9,4.5,1.9c0.2,0,0.4,0,0.7-0.1c0.3,0,0.6-0.1,0.8-0.1
		v3.7c-2.4-0.2-4.7-0.3-6.9-0.4c-2.1-0.1-4-0.1-5.6-0.1c-1.5,0-3.2,0-5.2,0.1c-2,0.1-4.5,0.2-7.7,0.4v-3.6c0.2,0,0.6,0,1,0.1
		c0.4,0,0.7,0.1,0.9,0.1c2.7,0,4.5-0.6,5.4-1.9c0.9-1.3,1.4-5,1.4-11.1v-3.9l0.2-39.5v-9c0-1.5-0.4-2.6-1.1-3.4
		c-0.7-0.8-1.8-1.1-3.2-1.1c-0.5,0-1.4,0.1-2.7,0.3c-0.3,0.1-0.5,0.1-0.6,0.1l-0.9-3.4c3.2-0.6,6.3-1.2,9.3-2
		C365.5,30.2,368.5,29.3,371.6,28.3z"/>
	<path d="M473.3,80.1h-28.2c-2.2,0-4.2,0-6.1,0.1c-1.9,0.1-3.6,0.2-5.2,0.3v1.9c0,6.9,1.7,12.2,5.2,15.9c3.5,3.7,8.4,5.6,14.8,5.6
		c2.8,0,5.6-0.4,8.3-1.3c2.7-0.9,5.7-2.2,8.7-4l2.3,3.4c-4,2.9-7.9,5.2-11.9,6.7c-4,1.5-7.9,2.3-11.7,2.3c-7.5,0-13.7-2.4-18.5-7.3
		c-4.9-4.8-7.3-11.1-7.3-18.7c0-8.1,2.5-14.9,7.6-20.4c5.1-5.5,11.3-8.2,18.6-8.2c6.8,0,12.3,2.1,16.3,6.2
		C470.4,66.7,472.7,72.5,473.3,80.1z M462.6,74.5c-1.2-4.3-2.9-7.6-5.3-9.9c-2.4-2.3-5.2-3.4-8.4-3.4c-3.7,0-6.9,1.3-9.5,4
		c-2.6,2.7-4.4,6.3-5.2,10.9c7.6,0,13.6-0.1,18-0.4C456.6,75.6,460.1,75.1,462.6,74.5z"/>
</g>
<g>
	<path d="M1.1,0c8.4,0.5,16.5,0.8,24.2,1.1C33,1.3,40,1.4,46.3,1.4c7.2,0,14.7-0.1,22.3-0.4C76.2,0.8,84,0.5,91.9,0v12.5h-4.8
		c-9.7,0-16.3,2.6-19.7,7.7c-3.4,5.2-5.1,18.9-5.1,41.2v8.7v43.8c7.7,0.2,15.9,0.4,24.5,0.5c8.6,0.1,20.6,0.2,36.1,0.2
		c15.8,0,29.5-0.1,41.3-0.2c11.7-0.1,23.6-0.3,35.7-0.5V64.2c0-23.6-1.7-38.1-5.1-43.6c-3.4-5.5-10-8.2-19.7-8.2h-4.8V0
		c8,0.5,15.8,0.8,23.4,1.1c7.7,0.2,15.2,0.4,22.5,0.4c6.3,0,13.2-0.1,20.8-0.4c7.6-0.2,15.6-0.6,24.1-1.1v12.5
		c-0.6,0-1.4-0.1-2.5-0.2c-1.1-0.1-1.8-0.2-2.3-0.2c-9.1,0-15.4,2.9-18.7,8.6c-3.3,5.8-5,18.1-5,36.9c0,3.6,0.1,10.3,0.2,20.3
		c0.1,10,0.2,18.2,0.2,24.6v47.4c0,6.4-0.1,14.6-0.2,24.7c-0.1,10-0.2,16.9-0.2,20.6c0,19.5,1.7,32.2,5,38.1
		c3.3,5.9,9.6,8.9,18.7,8.9c1.7,0,2.9,0,3.8-0.1c0.9-0.1,1.7-0.1,2.4-0.1v12.3c-9.4-0.5-18.1-0.8-26.1-1.1c-8-0.2-14.8-0.4-20.2-0.4
		c-6.4,0-13.6,0.1-21.7,0.4c-8,0.2-16.6,0.6-25.7,1.1v-12.5c0.7,0,1.8,0.1,3.2,0.2c1.4,0.1,2.4,0.2,3,0.2c9.7,0,16.3-2.7,19.7-8
		c3.4-5.3,5.1-18.2,5.1-38.7v-21.6v-39h-2.3c-30.5-0.5-52.9-0.7-67-0.7c-10.7,0-20.9,0.1-30.6,0.4c-1.3,0-2,0-2.1,0
		c-5.1,0-10.6,0-16.6,0.1c-5.9,0.1-12.2,0.2-18.9,0.3v42.4v14.3c0,22.8,1.7,36.9,5.2,42.4c3.4,5.5,10.1,8.2,20,8.2
		c0.6,0,1.6-0.1,3-0.2c1.4-0.1,2.5-0.2,3.2-0.2v12.5c-9.1-0.5-17.7-0.8-25.7-1.1c-8-0.2-15.2-0.4-21.7-0.4c-5.5,0-12.2,0.1-20.1,0.4
		c-8,0.2-16.7,0.6-26.2,1.1V242c0.7,0,1.5,0,2.4,0.1c0.9,0.1,2.1,0.1,3.7,0.1c9.3,0,15.6-3,18.9-8.9c3.3-5.9,5-18.6,5-38.1
		c0-3.7-0.1-10.5-0.2-20.6c-0.1-10-0.2-18.3-0.2-24.7v-47.4c0-5.9,0.1-13.5,0.2-22.7c0.1-9.2,0.2-15.5,0.2-18.8
		c0-20.5-1.7-33.8-5.1-39.9c-3.4-6.1-9.8-9.1-19.2-9.1c-0.4,0-1.1,0.1-2.1,0.2c-1.1,0.1-1.9,0.2-2.5,0.2V0z"/>
</g>
<g>
	<path d="M350.9,208.9h-39.7c-3.1,0-5.9,0.1-8.5,0.2c-2.6,0.1-5,0.3-7.2,0.5v3c0,10.6,2.5,18.8,7.4,24.6c4.9,5.8,11.8,8.7,20.8,8.7
		c4,0,7.9-0.7,11.7-2c3.8-1.3,7.9-3.4,12.3-6.2l3.2,5.2c-5.6,4.6-11.1,8-16.7,10.3c-5.6,2.3-11,3.5-16.5,3.5
		c-10.5,0-19.2-3.8-26-11.3c-6.8-7.5-10.2-17.1-10.2-28.9c0-12.5,3.6-23,10.7-31.5c7.2-8.5,15.9-12.8,26.2-12.8
		c9.6,0,17.2,3.2,22.9,9.6C346.8,188.2,350.1,197.2,350.9,208.9z M335.8,200.3c-1.6-6.7-4.1-11.8-7.4-15.3
		c-3.3-3.5-7.3-5.3-11.9-5.3c-5.2,0-9.7,2.1-13.4,6.3c-3.7,4.2-6.1,9.8-7.3,16.9c10.7,0,19.2-0.2,25.3-0.6
		C327.4,201.9,332.3,201.2,335.8,200.3z"/>
	<path d="M388.6,171.2c-0.1,2.1-0.1,5-0.2,8.8c-0.7,21.8-1.1,37.1-1.1,46v8.6c0,6.3,0.6,10.2,1.8,11.9c1.2,1.6,3.5,2.4,7,2.4
		c0.3,0,0.8,0,1.3-0.1c0.5-0.1,0.9-0.1,1.2-0.1v5.5c-4.6-0.3-8.3-0.5-11.1-0.7c-2.8-0.1-5.2-0.2-7.2-0.2c-1.7,0-3.9,0.1-6.6,0.2
		c-2.7,0.1-6.7,0.3-12.1,0.7v-5.7h2c6.7,0,10.1-6.6,10.2-19.8c0-1.9,0-3.4,0-4.5l0.3-20.1c0-1.5,0-3.3,0.1-5.5
		c0.1-2.2,0.1-3.7,0.1-4.5c0-4.4-0.4-7.3-1.3-8.7c-0.8-1.4-2.4-2.1-4.6-2.1c-0.4,0-1.1,0-1.9,0.1c-0.8,0.1-1.7,0.2-2.7,0.3l-0.8-5.1
		c4.3-0.8,8.5-1.8,12.8-3.1C380,174.4,384.3,172.9,388.6,171.2z M379.8,133l5.8,4.3c1.5,1.1,2.6,2.3,3.3,3.4
		c0.7,1.1,1.1,2.3,1.1,3.6c0,1.2-0.3,2.3-0.9,3.2s-1.6,1.9-3.2,3.1l-6.1,4.6l-5.7-4.5c-1.6-1.2-2.7-2.4-3.4-3.5
		c-0.7-1.1-1.1-2.2-1.1-3.4c0-1.2,0.3-2.2,0.8-3.1c0.5-0.9,1.7-2,3.3-3.2L379.8,133z"/>
	<path d="M436.4,171.2c-0.3,8.3-0.6,16.8-0.8,25.4c-0.2,8.6-0.3,17.7-0.3,27.5v11.4c0,13.6-0.2,23-0.7,28.4
		c-0.4,5.3-1.2,9.4-2.3,12.2c-2.5,6.7-6.6,11.9-12.3,15.8c-5.6,3.9-12,5.9-19,5.9h-2l0.3-6.5c8.2-0.7,14-3.8,17.5-9.4
		c3.5-5.6,5.2-14.9,5.2-27.9v-58.8c0-5.1-0.4-8.4-1.2-9.8c-0.8-1.4-2.3-2-4.5-2c-0.5,0-1.1,0-1.7,0.1c-0.7,0.1-1.5,0.2-2.4,0.3
		l-1-5.1c4.7-0.9,9.1-1.9,13.2-3.2C428.6,174.3,432.6,172.9,436.4,171.2z M427.5,133l5.9,4.3c1.5,1.1,2.5,2.3,3.2,3.4
		c0.7,1.1,1.1,2.3,1.1,3.6c0,1.2-0.3,2.3-0.8,3.2c-0.5,0.9-1.6,1.9-3.2,3.1l-6.2,4.6l-5.6-4.5c-1.6-1.2-2.8-2.4-3.5-3.5
		c-0.7-1.1-1.1-2.2-1.1-3.4c0-1.2,0.3-2.2,0.9-3.1c0.6-0.9,1.7-2,3.4-3.2L427.5,133z"/>
	<path d="M481.5,171.2c-0.2,2.2-0.4,4.4-0.6,6.5c-0.2,2.1-0.3,4.2-0.3,6.3c7.4-4.7,13.1-7.8,17.2-9.4c4.1-1.6,8.1-2.4,11.9-2.4
		c4.6,0,8.5,1.1,11.7,3.2c3.2,2.1,6,5.4,8.2,10c7.3-4.8,13.2-8.2,17.8-10.2c4.6-2,8.7-3,12.4-3c7.9,0,13.7,2.4,17.3,7.2
		c3.6,4.8,5.4,12.6,5.4,23.4v1.7l-0.3,26.7c0,2.7-0.1,5.2-0.2,7.4c0,0.2,0,0.3,0,0.3c0,3.9,0.6,6.5,1.8,7.7c1.2,1.2,3.6,1.9,7.2,1.9
		h1.9v5.7c-5.3-0.3-9.2-0.5-11.8-0.7c-2.6-0.1-4.7-0.2-6.3-0.2c-1.7,0-3.9,0.1-6.5,0.2c-2.6,0.1-6.2,0.3-11,0.7v-5.7
		c0.3,0.1,0.7,0.1,1.2,0.1c0.5,0,1.2,0,2,0c3.5,0,5.8-1.1,6.9-3.4c1.2-2.2,1.7-7.7,1.7-16.4v-11.9c0-2,0-4.5,0.1-7.7
		c0.1-3.2,0.1-5.4,0.1-6.7c0-6.9-1.3-12-3.8-15.3c-2.5-3.2-6.4-4.9-11.7-4.9c-2.5,0-5.6,0.7-9.1,2c-3.5,1.4-7.9,3.5-13.1,6.5
		l-0.6,40.1v6.7c0,4.9,0.6,7.9,1.8,9.1c1.2,1.2,3.7,1.7,7.5,1.7h1v5.6c-4.3-0.2-7.9-0.4-10.7-0.5c-2.9-0.1-5.3-0.2-7.4-0.2
		c-2.1,0-4.5,0.1-7.2,0.2c-2.8,0.1-5.7,0.3-8.7,0.6l-0.1-5.7c3.8,0,6.3-0.3,7.4-0.9c1.1-0.6,2-2.1,2.4-4.3c0.4-1.8,0.7-6.3,0.9-13.6
		c0.2-7.3,0.3-16.5,0.3-27.9c0-6.8-1.2-11.7-3.6-14.7c-2.4-3.1-6.2-4.6-11.5-4.6c-2.5,0-5.6,0.7-9.1,2c-3.5,1.3-7.8,3.4-12.8,6.2
		c-0.3,8.8-0.6,16.5-0.7,23c-0.1,6.5-0.2,12.4-0.2,17.7c0,8.3,0.6,13.2,1.7,14.9c1.1,1.6,3.5,2.4,7,2.4c0.3,0,0.7,0,1.3-0.1
		c0.6-0.1,1-0.1,1.4-0.1l-0.1,5.7c-3.4-0.3-6.6-0.5-9.8-0.6c-3.1-0.1-6.1-0.2-8.9-0.2c-2.4,0-5,0.1-8,0.2c-2.9,0.1-6,0.3-9.3,0.6
		l-0.1-5.7h1.5c6.8,0,10.2-6.6,10.2-19.7c0-2,0-3.5,0.1-4.6l0.2-19.9v-8c0-5.3-0.4-8.8-1.2-10.4c-0.8-1.7-2.3-2.5-4.5-2.5
		c-0.4,0-1,0.1-1.7,0.2c-0.7,0.1-1.4,0.3-2.2,0.5l-1-5c4-1.1,8-2.3,12.1-3.6C473.5,174.2,477.5,172.8,481.5,171.2z"/>
	<path d="M676,242.5l2.3,5.1c-4.1,2.9-7.8,5.2-11.1,6.8c-3.4,1.6-6.1,2.4-8.1,2.4c-3.5,0-6.1-1-7.8-3c-1.7-2-2.7-5.1-2.8-9.2
		c-5.9,4-10.8,6.8-14.7,8.5s-7.4,2.6-10.5,2.6c-5.5,0-10-2.1-13.7-6.2c-3.7-4.1-5.5-9.2-5.5-15.1c0-10.1,10.9-17.8,32.7-22.9
		c5.1-1.2,9.2-2.1,12-2.8c0-0.9,0-2.2,0.1-4c0.2-3.6,0.2-5.9,0.2-7c0-5.6-1.2-9.8-3.5-12.5c-2.3-2.7-5.9-4-10.6-4
		c-4.7,0-8.3,0.9-11,2.6c-2.7,1.7-4,4-4,6.9c0,0.3,0,0.6,0.1,1.1c0.1,0.5,0.1,0.8,0.1,1c0,1.7-0.8,3.1-2.4,4.2
		c-1.6,1.1-3.6,1.7-5.9,1.7c-2,0-3.4-0.3-4.3-1c-0.9-0.7-1.4-1.7-1.4-3c0-4.3,3.7-9.2,11-14.5c7.3-5.3,14.9-8,22.7-8
		c7.5,0,13.2,2.1,17.1,6.2c3.9,4.1,5.9,10.2,5.9,18.2c0,4.3-0.3,11-0.8,20c-0.5,9-0.8,15.8-0.8,20.5c0,3.5,0.4,5.9,1.2,7.2
		c0.8,1.2,2.2,1.9,4.2,1.9c0.9,0,2-0.3,3.4-0.8C671.2,244.7,673.3,243.8,676,242.5z M648.3,215c-1,0.3-2.6,0.7-4.6,1.2
		c-17.6,4.8-26.4,10.5-26.4,17.1c0,3.6,1.1,6.5,3.4,8.7s5.3,3.4,9,3.4c2.3,0,4.9-0.6,7.9-1.8c3-1.2,6.4-3.1,10.4-5.7L648.3,215z"/>
	<path d="M708.6,171.2l-1,13.7c6.1-4.4,11.4-7.7,16-9.7c4.5-2,8.7-3,12.5-3c8,0,13.9,2.2,18,6.7c4,4.5,6,11.2,6,20.2
		c0,0.1,0,2.4-0.1,7.2c-0.1,4.7-0.1,9.4-0.1,14.1c0,2,0,4.5-0.1,7.5c-0.1,3-0.1,5.1-0.1,6.1c0,6.1,0.5,10,1.6,11.9
		c1.1,1.8,3.1,2.8,6.2,2.8c0.2,0,0.5,0,0.9-0.1c0.5-0.1,0.8-0.1,1-0.1v5.7c-4.9-0.3-8.6-0.5-11.1-0.7c-2.5-0.1-4.6-0.2-6.3-0.2
		c-2.6,0-5.4,0.1-8.5,0.2c-3,0.1-6.1,0.3-9.3,0.6l-0.1-5.7h1.2c6.9,0,10.5-6.3,10.6-19c0.1-0.7,0.1-1.2,0.1-1.6l0.2-17.5v-2.9
		c0-10-1.2-16.7-3.5-19.9c-2.3-3.3-6.3-4.9-12-4.9c-3.1,0-6.6,0.7-10.4,2.2s-7.9,3.7-12.1,6.6c-0.2,5.6-0.4,11-0.5,16
		c-0.1,5-0.2,9.5-0.2,13.6v11.2c0,7.2,0.5,11.7,1.6,13.6c1.1,1.9,3.1,2.8,6.2,2.8c0.2,0,0.6,0,1-0.1c0.5-0.1,0.8-0.1,1.1-0.1v5.7
		c-4.7-0.3-8.3-0.5-11-0.7c-2.7-0.1-4.9-0.2-6.6-0.2c-1.6,0-3.8,0.1-6.4,0.2c-2.7,0.1-6.4,0.3-11.1,0.7l-0.1-5.7h1.5
		c6.8,0,10.2-6.6,10.2-19.7c0-2,0-3.5,0.1-4.6l0.2-19.9v-8c0-5.3-0.4-8.8-1.2-10.4c-0.8-1.7-2.3-2.5-4.5-2.5c-0.4,0-1,0.1-1.7,0.2
		c-0.7,0.1-1.4,0.3-2.2,0.5l-1-5c4.1-0.8,8.1-1.8,12.2-3.1C700.1,174.6,704.3,173.1,708.6,171.2z"/>
	<path d="M835.2,175.5c0,3.3,0.2,6.7,0.5,10c0.4,3.4,0.9,6.7,1.5,10.2l-6.2,1c-0.7-5.6-2.4-9.8-5.4-12.6c-2.9-2.8-7-4.1-12.3-4.1
		c-4.6,0-8.3,1.2-11.2,3.7c-2.9,2.5-4.4,5.6-4.4,9.4c0,6,6.4,10.8,19.2,14.3c2.2,0.6,3.9,1.1,5.1,1.4c6.4,1.8,11.1,4.3,14,7.6
		c3,3.3,4.4,7.6,4.4,13c0,7.9-3.1,14.4-9.3,19.6c-6.2,5.1-14.2,7.7-23.8,7.7c-3.5,0-7.1-0.4-10.8-1.1c-3.7-0.8-7.4-1.9-11.3-3.4
		c0.1-0.5,0.1-1.1,0.1-1.7c0-0.6,0-1.5,0-2.8c0-2.5-0.2-5.2-0.4-8.1c-0.3-2.9-0.7-6-1.3-9.2l6.1-1.5c0.9,6.7,3,11.7,6.3,15.1
		c3.4,3.3,8,5,14,5c5.4,0,9.8-1.3,13.3-3.9c3.4-2.6,5.2-6,5.2-10.2c0-5.9-5.7-10.5-17.2-14c-1.1-0.4-2-0.6-2.5-0.8
		c-8.2-2.5-14-5.6-17.3-9.2c-3.3-3.6-5-8.5-5-14.5c0-6.9,2.8-12.7,8.3-17.3c5.5-4.6,12.6-6.9,21.2-6.9c2.7,0,5.5,0.3,8.7,0.8
		C827.7,173.5,831.2,174.3,835.2,175.5z"/>
</g>
<g>
	<path d="M160,367.3c0.4,0,0.7,0.1,1,0.1c0.3,0,0.9,0,1.6,0c3.5,0,5.9-1.2,7.2-3.5s1.9-7.5,1.9-15.6c0-1.3,0-3.7-0.1-7.1
		c0-3.4-0.1-6.2-0.1-8.4v-18.1c0-2.4,0-6.3,0.1-11.5c0-5.2,0.1-9.2,0.1-11.9c0-3.8-0.7-6.4-2.2-7.9c-1.4-1.5-4-2.2-7.5-2.2h-1.1
		v-4.4c9.2,0.2,16.6,0.4,22.3,0.5c5.7,0.1,10.5,0.2,14.4,0.2c4.3,0,8.9-0.1,13.9-0.2c5-0.1,10.5-0.3,16.7-0.5c0,3.1,0.1,6.3,0.3,9.7
		c0.2,3.4,0.5,7.2,0.9,11.5l-4.6,0.5c-0.3-5.6-1.9-9.4-4.7-11.4c-2.8-1.9-9.2-2.9-19-2.9c-3.5,0-8.8,0.1-16.1,0.3h-0.4
		c-0.1,6.6-0.2,13.8-0.4,21.9c-0.2,8-0.3,12.5-0.3,13.4h2.2c2.5,0,5.6,0,9.2,0.1c3.7,0,6.2,0.1,7.5,0.1c6.5,0,10.8-0.6,12.9-1.8
		c2.1-1.2,3.2-3.4,3.4-6.6l4.2,0.3c-0.4,3.3-0.6,6.1-0.7,8.2c-0.1,2.1-0.2,4.1-0.2,5.9c0,1.3,0,2.9,0.1,4.7c0.1,1.8,0.2,3.9,0.3,6.1
		l-4.4,0.3v-1.1c0-3.6-1.1-6.1-3.3-7.4c-2.2-1.3-7.2-2-15.1-2h-11.4h-4.8v25.8c0,6.4,0.7,10.4,2.1,12.1c1.4,1.7,4.3,2.5,8.6,2.5h2.6
		v4.6c-3.4-0.2-6.7-0.3-9.9-0.4c-3.3-0.1-6.4-0.1-9.5-0.1c-1.6,0-3.9,0-7.1,0.1c-3.2,0.1-6.7,0.2-10.7,0.4V367.3z"/>
	<path d="M267.8,304.5c9.3,0,17.1,3.1,23.2,9.4c6.1,6.3,9.2,14,9.2,23.3c0,10.2-3.2,18.8-9.7,25.7c-6.5,7-14.4,10.5-23.9,10.5
		c-9.5,0-17.3-3.2-23.3-9.6c-6.1-6.4-9.1-14.4-9.1-24.2c0-9.7,3.3-18,9.9-24.9C250.7,307.9,258.6,304.5,267.8,304.5z M266.1,311.5
		c-5.9,0-10.7,2.2-14.3,6.5c-3.6,4.3-5.4,10.1-5.4,17.4c0,9.3,2,16.9,6,22.7c4,5.8,9.2,8.7,15.6,8.7c6.2,0,11.1-2.3,14.8-6.9
		c3.7-4.6,5.5-10.9,5.5-18.8c0-8.7-2.1-15.8-6.3-21.3C277.9,314.2,272.6,311.5,266.1,311.5z"/>
	<path d="M328.9,304.4c-0.3,8.7-0.6,16.3-0.7,22.8c-0.2,6.5-0.3,11.1-0.3,13.6c0,9.5,1,15.8,2.9,19c1.9,3.2,5.3,4.7,10,4.7
		c2.3,0,5-0.6,7.8-1.7c2.9-1.2,6.2-2.9,9.8-5.2c0.1-6.8,0.2-12.4,0.3-16.9c0.1-4.4,0.1-7.7,0.1-9.8v-4.5c0-5.6-0.5-9.1-1.4-10.5
		c-0.9-1.4-2.7-2.1-5.4-2.1c-0.4,0-0.9,0-1.4,0c-0.5,0-1,0.1-1.6,0.1l-0.4-4.3c3.8-0.3,7.5-0.7,11.1-1.3c3.7-0.6,7.2-1.3,10.7-2.1
		c-0.3,7.6-0.5,14.3-0.6,20.3c-0.1,5.9-0.2,11.1-0.2,15.5c0,1.8,0,4.1-0.1,6.8c0,2.7-0.1,4.5-0.1,5.4c0,4.1,0.4,6.8,1.1,8.1
		c0.7,1.3,2,1.9,4,1.9c0.4,0,1,0,1.6-0.1c0.6-0.1,1.4-0.3,2.4-0.5l0.5,4.1l-20.3,5.1l-0.3-9.9c-4.8,3.6-9,6.3-12.6,8
		c-3.6,1.7-6.9,2.5-9.9,2.5c-6.1,0-10.8-1.7-14.2-5.2c-3.4-3.5-5.1-8.4-5.1-14.6c0-1.6,0.1-4.9,0.2-10c0-2.1,0.1-3.8,0.1-5l0.2-7.4
		c0-1.2,0-2.8,0.1-4.7c0-1.9,0.1-3.2,0.1-4c0-3.8-0.3-6.3-1-7.6c-0.6-1.2-1.8-1.9-3.6-1.9c-0.5,0-1.2,0-1.9,0.1
		c-0.7,0.1-1.4,0.2-2.2,0.3l-0.5-4.3c3.2-0.5,6.5-1.2,9.9-2C321.7,306.4,325.2,305.5,328.9,304.4z"/>
	<path d="M409.5,303.7l-0.8,11.2c5-3.6,9.4-6.3,13-7.9c3.7-1.6,7.1-2.5,10.2-2.5c6.5,0,11.4,1.8,14.7,5.5c3.3,3.7,4.9,9.2,4.9,16.5
		c0,0,0,2-0.1,5.8c0,3.9-0.1,7.7-0.1,11.6c0,1.6,0,3.7-0.1,6.1c0,2.5-0.1,4.1-0.1,5c0,5,0.4,8.2,1.3,9.7c0.9,1.5,2.6,2.3,5,2.3
		c0.1,0,0.4,0,0.8-0.1c0.4,0,0.7-0.1,0.8-0.1v4.6c-4-0.3-7-0.4-9-0.5c-2-0.1-3.7-0.1-5.1-0.1c-2.1,0-4.4,0.1-6.9,0.2
		c-2.5,0.1-5,0.3-7.6,0.5l-0.1-4.6h1c5.7,0,8.5-5.2,8.6-15.5c0-0.6,0.1-1,0.1-1.3l0.1-14.3v-2.4c0-8.2-1-13.6-2.9-16.3
		c-1.9-2.7-5.2-4-9.8-4c-2.6,0-5.4,0.6-8.5,1.8c-3.1,1.2-6.4,3-9.9,5.4c-0.2,4.6-0.3,9-0.4,13c-0.1,4.1-0.1,7.8-0.1,11.1v9.2
		c0,5.8,0.4,9.5,1.3,11.1c0.9,1.6,2.6,2.3,5.1,2.3c0.2,0,0.5,0,0.8-0.1c0.4,0,0.7-0.1,0.9-0.1v4.6c-3.8-0.3-6.8-0.4-9-0.5
		c-2.2-0.1-4-0.1-5.4-0.1c-1.3,0-3.1,0-5.2,0.1c-2.2,0.1-5.2,0.3-9.1,0.5l-0.1-4.6h1.3c5.5,0,8.3-5.4,8.4-16.1c0-1.6,0-2.8,0.1-3.7
		l0.1-16.3v-6.6c0-4.3-0.3-7.2-1-8.5c-0.7-1.4-1.9-2-3.7-2c-0.4,0-0.8,0-1.4,0.1c-0.6,0.1-1.1,0.2-1.8,0.4l-0.8-4.1
		c3.3-0.6,6.7-1.5,10-2.5C402.6,306.5,406,305.2,409.5,303.7z"/>
	<path d="M529.2,268.6l-0.1,1.2c-0.5,15.7-1,30.9-1.3,45.6l-0.1,10.4c-0.1,2.4-0.2,5.7-0.2,9.7c-0.1,4.1-0.1,8.5-0.1,13.4v2.6
		c0,6.9,0.2,11.2,0.7,12.9s1.4,2.5,2.9,2.5c0.8,0,1.7-0.1,2.6-0.3c0.9-0.2,1.8-0.4,2.8-0.8l1.1,4.2c-3.1,1.2-6.1,2.1-9.1,2.7
		s-6,0.9-9,0.9l-1.9-0.1c-0.3-1.9-0.5-3.7-0.7-5.3c-0.2-1.6-0.2-3.2-0.2-4.6c-5,3.2-9.2,5.5-12.5,6.7c-3.3,1.2-6.5,1.9-9.6,1.9
		c-7.7,0-14.1-2.9-18.9-8.8c-4.9-5.9-7.3-13.5-7.3-22.9c0-10.4,3.1-18.9,9.4-25.3c6.2-6.4,14.3-9.6,24.3-9.6c2.3,0,4.6,0.2,7.1,0.6
		c2.5,0.4,5.2,1.1,8.1,2c0-0.4,0-1,0.1-1.8c0.2-7.7,0.3-14.7,0.3-20.9c0-2.8-0.4-4.8-1.3-5.9c-0.9-1.2-2.3-1.7-4.3-1.7
		c-0.4,0-1,0.1-1.7,0.2c-0.7,0.1-1.6,0.3-2.7,0.5l-0.8-4.3c3.3-0.6,6.8-1.3,10.4-2.2C521,270.9,525,269.9,529.2,268.6z M517,317
		c-3-1.7-5.8-2.9-8.4-3.7c-2.7-0.8-5.3-1.2-8-1.2c-6.8,0-12.1,2.1-15.8,6.4c-3.7,4.3-5.6,10.3-5.6,18c0,8.2,1.8,14.8,5.5,19.6
		c3.6,4.8,8.5,7.3,14.6,7.3c2.4,0,5-0.5,7.9-1.4c2.8-0.9,6-2.4,9.4-4.3L517,317z"/>
	<path d="M604.2,361.9l1.9,4.2c-3.3,2.4-6.4,4.2-9.1,5.5s-5,2-6.6,2c-2.8,0-5-0.8-6.4-2.5s-2.2-4.2-2.3-7.5c-4.8,3.2-8.8,5.5-12,6.9
		c-3.2,1.4-6,2.1-8.6,2.1c-4.5,0-8.2-1.7-11.2-5c-3-3.4-4.5-7.5-4.5-12.4c0-8.3,8.9-14.5,26.8-18.7c4.2-1,7.5-1.7,9.8-2.3
		c0-0.8,0-1.8,0.1-3.3c0.1-2.9,0.2-4.8,0.2-5.7c0-4.6-1-8-2.9-10.2c-1.9-2.2-4.8-3.3-8.7-3.3c-3.8,0-6.8,0.7-9,2.1
		c-2.2,1.4-3.3,3.3-3.3,5.7c0,0.2,0,0.5,0.1,0.9c0,0.4,0.1,0.7,0.1,0.8c0,1.4-0.7,2.5-2,3.4c-1.3,0.9-2.9,1.4-4.8,1.4
		c-1.6,0-2.8-0.3-3.5-0.8c-0.8-0.5-1.1-1.4-1.1-2.5c0-3.5,3-7.5,9-11.9c6-4.4,12.2-6.5,18.5-6.5c6.2,0,10.8,1.7,14,5.1
		c3.2,3.4,4.8,8.4,4.8,14.9c0,3.5-0.2,9-0.6,16.3c-0.4,7.3-0.6,12.9-0.6,16.7c0,2.9,0.3,4.8,1,5.8c0.6,1,1.8,1.5,3.4,1.5
		c0.7,0,1.6-0.2,2.8-0.6C600.3,363.7,602,363,604.2,361.9z M581.5,339.5c-0.8,0.2-2.1,0.6-3.8,1c-14.4,3.9-21.6,8.6-21.6,13.9
		c0,2.9,0.9,5.3,2.8,7.1c1.9,1.8,4.3,2.8,7.4,2.8c1.9,0,4-0.5,6.4-1.5c2.4-1,5.3-2.5,8.5-4.6L581.5,339.5z"/>
	<path d="M626.7,293.8l4.4,1.3c-0.3,2.4-0.5,4.6-0.6,6.5c-0.2,1.9-0.3,3.8-0.3,5.7h4.7c2.5,0,5.1,0,7.7-0.1c2.6-0.1,5.2-0.2,7.9-0.3
		l-1.6,7.2c-2.8-0.2-5.5-0.4-8-0.4c-2.5-0.1-5-0.1-7.5-0.1h-3.1c-0.3,7.6-0.5,13.4-0.6,17.5c-0.1,4.1-0.2,7.4-0.2,10.1
		c0,10,0.7,16.5,2.1,19.6c1.4,3,3.8,4.5,7.4,4.5c1.5,0,3.1-0.3,4.9-0.9c1.8-0.6,4-1.6,6.5-3.1l2.2,4.4c-4.3,2.6-8.1,4.5-11.6,5.8
		s-6.5,2-9,2c-4.7,0-8.2-1.6-10.4-4.9c-2.2-3.3-3.3-8.5-3.3-15.7c0-1.4,0.1-6.5,0.3-15.2s0.3-16.7,0.3-23.9c-0.4,0-1,0-1.7,0.1
		c-3.7,0.1-6.2,0.2-7.6,0.2v-4.8c4.3-0.6,7.9-2.2,10.8-4.8C623.3,301.9,625.4,298.3,626.7,293.8z"/>
	<path d="M681,303.7c0,1.7-0.1,4.1-0.2,7.2c-0.6,17.8-0.9,30.3-0.9,37.6v7c0,5.1,0.5,8.4,1.5,9.7c1,1.3,2.9,2,5.7,2
		c0.3,0,0.6,0,1.1-0.1c0.4,0,0.8-0.1,1-0.1v4.5c-3.8-0.3-6.8-0.4-9.1-0.5c-2.3-0.1-4.2-0.1-5.8-0.1c-1.4,0-3.2,0-5.4,0.1
		c-2.2,0.1-5.5,0.3-9.9,0.5v-4.6h1.7c5.5,0,8.3-5.4,8.3-16.2c0-1.5,0-2.8,0-3.7l0.3-16.4c0-1.2,0-2.7,0.1-4.5c0-1.8,0.1-3,0.1-3.7
		c0-3.6-0.3-6-1-7.1c-0.7-1.2-1.9-1.7-3.8-1.7c-0.4,0-0.9,0-1.6,0.1s-1.4,0.1-2.2,0.2l-0.7-4.2c3.5-0.7,7-1.5,10.5-2.5
		C674,306.3,677.5,305.1,681,303.7z M673.8,272.4l4.7,3.5c1.2,0.9,2.1,1.9,2.7,2.8c0.6,0.9,0.9,1.9,0.9,2.9c0,1-0.2,1.9-0.7,2.6
		s-1.3,1.6-2.6,2.6l-5,3.8l-4.6-3.7c-1.3-1-2.2-2-2.8-2.8c-0.6-0.9-0.9-1.8-0.9-2.8c0-1,0.2-1.8,0.7-2.6c0.4-0.7,1.3-1.6,2.7-2.6
		L673.8,272.4z"/>
	<path d="M733.3,304.5c9.3,0,17.1,3.1,23.2,9.4c6.1,6.3,9.2,14,9.2,23.3c0,10.2-3.2,18.8-9.7,25.7s-14.4,10.5-23.9,10.5
		c-9.5,0-17.3-3.2-23.3-9.6c-6.1-6.4-9.1-14.4-9.1-24.2c0-9.7,3.3-18,9.9-24.9C716.2,307.9,724.1,304.5,733.3,304.5z M731.6,311.5
		c-5.9,0-10.7,2.2-14.3,6.5c-3.6,4.3-5.4,10.1-5.4,17.4c0,9.3,2,16.9,6,22.7c4,5.8,9.2,8.7,15.6,8.7c6.2,0,11.1-2.3,14.8-6.9
		c3.7-4.6,5.5-10.9,5.5-18.8c0-8.7-2.1-15.8-6.3-21.3C743.4,314.2,738.1,311.5,731.6,311.5z"/>
	<path d="M795.1,303.7l-0.8,11.2c5-3.6,9.4-6.3,13-7.9c3.7-1.6,7.1-2.5,10.2-2.5c6.5,0,11.4,1.8,14.7,5.5c3.3,3.7,4.9,9.2,4.9,16.5
		c0,0,0,2-0.1,5.8c0,3.9-0.1,7.7-0.1,11.6c0,1.6,0,3.7-0.1,6.1c0,2.5-0.1,4.1-0.1,5c0,5,0.4,8.2,1.3,9.7c0.9,1.5,2.6,2.3,5,2.3
		c0.1,0,0.4,0,0.8-0.1c0.4,0,0.7-0.1,0.8-0.1v4.6c-4-0.3-7-0.4-9-0.5c-2-0.1-3.7-0.1-5.1-0.1c-2.1,0-4.4,0.1-6.9,0.2
		c-2.5,0.1-5,0.3-7.6,0.5l-0.1-4.6h1c5.7,0,8.5-5.2,8.6-15.5c0-0.6,0.1-1,0.1-1.3l0.1-14.3v-2.4c0-8.2-1-13.6-2.9-16.3
		c-1.9-2.7-5.2-4-9.8-4c-2.6,0-5.4,0.6-8.5,1.8c-3.1,1.2-6.4,3-9.9,5.4c-0.2,4.6-0.3,9-0.4,13c-0.1,4.1-0.1,7.8-0.1,11.1v9.2
		c0,5.8,0.4,9.5,1.3,11.1c0.9,1.6,2.6,2.3,5.1,2.3c0.2,0,0.5,0,0.8-0.1c0.4,0,0.7-0.1,0.9-0.1v4.6c-3.8-0.3-6.8-0.4-9-0.5
		c-2.2-0.1-4-0.1-5.4-0.1c-1.3,0-3.1,0-5.2,0.1c-2.2,0.1-5.2,0.3-9.1,0.5l-0.1-4.6h1.3c5.5,0,8.3-5.4,8.4-16.1c0-1.6,0-2.8,0.1-3.7
		l0.1-16.3v-6.6c0-4.3-0.3-7.2-1-8.5c-0.7-1.4-1.9-2-3.7-2c-0.4,0-0.8,0-1.4,0.1c-0.6,0.1-1.1,0.2-1.8,0.4l-0.8-4.1
		c3.3-0.6,6.7-1.5,10-2.5C788.1,306.5,791.6,305.2,795.1,303.7z"/>
</g>
</svg>
